<?xml version="1.0" standalone="no"?>
<!DOCTYPE svg PUBLIC "-//W3C//DTD SVG 20010904//EN"
 "http://www.w3.org/TR/2001/REC-SVG-20010904/DTD/svg10.dtd">
<svg version="1.0" xmlns="http://www.w3.org/2000/svg"
 width="1022.000000pt" height="716.000000pt" viewBox="0 0 1022.000000 716.000000"
 preserveAspectRatio="xMidYMid meet">
<!-- <metadata>
Created by potrace 1.16, written by Peter Selinger 2001-2019
</metadata> -->
<g transform="translate(0.000000,716.000000) scale(0.100000,-0.100000)"
fill="#000000" stroke="none">
<path d="M3957 5952 c-201 -2 -269 -5 -272 -15 -3 -6 -6 -681 -8 -1500 l-2
-1487 78 0 78 0 -2 1423 -1 1422 648 0 c645 0 650 0 727 -23 295 -85 496 -336
497 -619 0 -99 -15 -164 -61 -260 -79 -165 -256 -309 -434 -354 l-45 -11 0
-79 0 -79 34 0 c19 0 65 -10 102 -21 230 -71 405 -250 460 -469 20 -80 14
-252 -11 -320 -78 -211 -224 -353 -445 -431 -63 -22 -76 -23 -507 -27 l-443
-3 0 1085 0 1086 450 0 450 0 0 75 0 75 -522 -2 -523 -3 -3 -1232 c-2 -983 0
-1233 10 -1233 269 -4 999 3 1037 10 243 46 479 219 586 430 64 125 77 178 83
313 4 100 1 143 -13 200 -35 147 -126 303 -232 397 -58 51 -172 127 -213 142
-17 5 -30 14 -30 18 0 5 24 25 54 45 256 169 400 469 357 740 -15 98 -17 104
-39 162 -104 272 -350 476 -633 523 -126 21 -566 29 -1212 22z"/>
<path d="M6050 5945 c0 -2 20 -35 44 -72 204 -316 265 -662 174 -993 -26 -95
-111 -275 -172 -363 l-47 -69 43 -46 c263 -282 351 -656 237 -1005 -48 -146
-129 -284 -233 -394 l-49 -53 100 0 99 0 50 73 c67 96 108 171 145 264 144
362 88 775 -148 1098 l-54 75 71 142 c51 104 79 176 102 263 30 114 31 130 32
310 1 207 -8 268 -65 439 -30 91 -114 265 -150 311 -19 23 -27 25 -100 25 -43
0 -79 -2 -79 -5z"/>
<path d="M8485 5278 c-15 -48 -68 -292 -72 -334 -4 -41 0 -61 20 -100 44 -85
105 -124 196 -124 122 0 186 63 221 217 14 58 30 103 42 115 25 25 66 20 90
-13 19 -25 19 -26 -17 -183 -19 -86 -33 -161 -30 -165 5 -9 75 -29 115 -33 24
-3 26 1 58 142 42 185 44 253 8 315 -36 60 -89 95 -158 102 -67 7 -118 -8
-164 -50 -46 -40 -60 -68 -84 -174 -12 -48 -28 -95 -37 -105 -16 -18 -59 -24
-79 -10 -34 22 -33 47 2 207 19 88 33 164 30 170 -4 10 -90 35 -122 35 -8 0
-16 -6 -19 -12z"/>
<path d="M1475 5229 c-456 -106 -445 -103 -445 -120 0 -9 18 -94 40 -190 45
-191 64 -233 130 -274 82 -52 183 -42 250 25 39 39 39 39 70 23 50 -24 138
-14 191 23 49 34 89 108 89 167 0 21 -18 117 -40 212 -22 95 -40 176 -40 179
0 11 -32 5 -245 -45z m153 -227 c12 -53 22 -107 22 -119 0 -22 -42 -63 -65
-63 -35 0 -57 38 -81 135 -13 55 -24 105 -24 111 0 10 65 29 110 33 12 1 21
-23 38 -97z m-289 1 c39 -146 43 -183 27 -208 -35 -53 -99 -40 -115 23 -30
115 -44 182 -38 188 6 6 89 31 109 33 4 1 12 -16 17 -36z"/>
<path d="M1808 4426 c-53 -28 -115 -69 -138 -91 -48 -47 -81 -127 -83 -205
l-2 -54 -87 -46 c-48 -25 -90 -49 -93 -52 -6 -6 51 -128 60 -128 3 0 47 21 98
47 l94 46 36 -27 c57 -44 123 -65 192 -60 48 3 84 16 183 64 67 32 122 62 122
65 0 10 -60 125 -65 125 -3 0 -49 -22 -103 -49 -53 -27 -111 -52 -128 -55 -42
-9 -114 24 -137 63 -36 61 -9 157 50 184 16 6 30 14 33 18 3 4 34 21 70 39 36
18 70 37 77 42 18 14 -41 128 -65 127 -9 -1 -61 -24 -114 -53z"/>
<path d="M8307 4426 c-90 -24 -148 -98 -153 -195 -2 -47 -6 -55 -32 -71 -124
-75 -135 -268 -20 -352 33 -25 465 -258 477 -258 4 0 21 29 39 65 l31 64 -62
35 c-34 18 -136 73 -227 120 -91 48 -171 94 -177 103 -20 26 -15 57 10 81 27
25 42 27 77 9 14 -7 102 -53 195 -102 94 -49 184 -97 200 -107 17 -10 35 -18
40 -18 14 0 78 121 68 130 -4 4 -80 46 -168 92 -88 47 -189 101 -225 120 -75
41 -93 71 -67 111 33 51 28 53 390 -136 70 -37 132 -67 137 -67 8 0 70 106 70
120 0 7 -433 238 -475 254 -37 14 -79 15 -128 2z"/>
<path d="M2263 3748 c-29 -24 -52 -46 -52 -51 -1 -4 28 -42 64 -84 35 -43 61
-80 57 -84 -4 -3 -98 -84 -209 -178 -112 -95 -203 -175 -203 -179 0 -12 81
-102 91 -102 6 0 100 77 210 170 110 94 206 170 213 170 8 0 39 -30 71 -67 32
-38 61 -69 66 -71 10 -4 109 77 109 89 0 4 -32 45 -70 91 -39 46 -80 94 -92
108 -50 59 -200 230 -202 230 -1 0 -25 -19 -53 -42z"/>
<path d="M7689 3557 c-46 -50 -120 -129 -163 -175 l-80 -84 75 -72 c77 -74
295 -278 386 -360 29 -27 56 -46 61 -44 13 5 322 339 322 348 0 10 -87 90 -99
90 -5 0 -60 -54 -122 -120 l-113 -121 -48 48 -48 47 53 56 c29 30 63 67 77 83
l23 27 -24 26 c-13 14 -37 35 -52 46 l-29 21 -78 -78 c-71 -71 -81 -77 -97
-65 -38 29 -73 64 -73 73 0 5 35 46 78 91 42 44 93 98 111 119 l35 37 -40 41
c-65 67 -61 68 -155 -34z"/>
<path d="M2863 3167 c-11 -12 -49 -60 -84 -107 -35 -47 -67 -89 -72 -95 -56
-69 -248 -338 -245 -345 3 -8 304 -237 365 -277 20 -14 24 -11 62 41 23 30 41
59 41 63 -1 4 -59 51 -130 103 -71 52 -129 99 -130 103 0 10 63 96 71 97 3 0
41 -26 85 -58 43 -32 84 -61 90 -65 11 -6 95 92 94 110 -1 4 -39 36 -85 71
-47 34 -85 66 -85 70 0 12 61 92 70 92 8 0 51 -30 185 -129 48 -34 88 -61 91
-58 3 2 23 29 45 58 l40 54 -33 29 c-18 15 -46 36 -61 46 -16 10 -59 41 -95
69 -37 28 -97 74 -133 101 l-67 49 -19 -22z"/>
<path d="M6643 2742 c-117 -58 -213 -110 -213 -114 0 -4 39 -87 88 -185 48
-99 92 -188 97 -199 39 -82 126 -244 130 -244 16 0 425 212 425 220 0 22 -55
120 -67 120 -7 0 -76 -31 -152 -70 -152 -76 -143 -75 -179 -3 -25 49 -29 45
91 103 48 24 87 47 87 52 0 5 -14 35 -30 68 -35 68 -24 68 -159 1 l-81 -41
-25 50 c-14 27 -25 54 -25 60 0 5 64 42 143 81 78 39 144 73 146 75 5 4 -50
123 -59 129 -3 1 -101 -45 -217 -103z"/>
<path d="M3455 2613 c-32 -76 -71 -165 -85 -198 -77 -171 -131 -308 -123 -315
11 -9 109 -50 121 -50 5 0 20 25 32 55 12 31 26 58 30 60 5 3 38 -8 74 -25
l66 -29 0 -76 0 -76 55 -25 c86 -37 85 -38 85 71 l0 95 28 6 c106 25 197 132
209 247 9 89 -17 159 -85 226 -49 48 -75 64 -193 114 -75 31 -141 57 -146 57
-5 0 -36 -62 -68 -137z m245 -101 c92 -45 125 -126 80 -199 -27 -46 -73 -67
-129 -60 -45 6 -161 51 -161 63 0 3 6 18 14 32 8 15 24 52 37 82 52 129 48
123 77 115 15 -4 52 -19 82 -33z"/>
<path d="M5893 2475 c-103 -32 -177 -95 -225 -192 -30 -61 -33 -76 -33 -158 0
-82 3 -97 32 -156 40 -80 102 -140 187 -180 53 -25 76 -30 143 -30 72 0 87 3
149 34 38 19 86 52 107 73 42 43 42 24 0 207 -14 61 -30 107 -36 107 -16 0
-118 -28 -123 -33 -3 -2 5 -46 16 -97 23 -102 24 -99 -37 -126 -47 -20 -119
-18 -170 7 -75 36 -123 115 -123 201 0 53 48 138 97 172 54 37 138 47 198 22
37 -16 40 -16 53 1 16 22 34 89 30 111 -8 42 -176 65 -265 37z"/>
<path d="M4297 2453 c-22 -83 -147 -656 -147 -673 0 -10 36 -19 99 -26 l46 -5
74 340 c41 188 72 343 69 347 -5 5 -112 33 -130 34 -4 0 -9 -8 -11 -17z"/>
<path d="M4781 2381 l-33 -6 -3 -75 c-2 -41 -5 -199 -7 -350 l-3 -275 155 0
c151 0 157 1 214 29 76 37 135 96 171 172 25 50 29 72 30 144 0 73 -4 94 -28
146 -32 68 -97 136 -168 177 -39 22 -64 27 -145 32 -55 3 -110 7 -124 9 -14 1
-40 0 -59 -3z m265 -177 c54 -28 101 -93 110 -150 19 -127 -81 -233 -220 -234
l-59 0 6 68 c4 37 7 129 7 206 l0 138 58 -4 c32 -2 76 -13 98 -24z"/>
<path d="M1120 1145 l0 -135 30 0 30 0 0 135 0 135 -30 0 -30 0 0 -135z"/>
<path d="M1430 1245 c0 -35 0 -35 -44 -35 -55 0 -93 -28 -102 -76 -7 -41 10
-88 40 -109 23 -17 83 -20 106 -5 9 5 19 5 27 -2 8 -6 15 -9 17 -7 5 4 9 135
7 217 -1 49 -3 52 -26 52 -22 0 -25 -4 -25 -35z"/>
<path d="M3628 1227 c-1 -29 -2 -89 0 -135 l4 -82 28 0 28 0 4 82 c2 46 1 106
0 135 -4 51 -5 53 -32 53 -27 0 -28 -2 -32 -53z"/>
<path d="M3800 1145 l0 -135 30 0 30 0 0 135 0 135 -30 0 -30 0 0 -135z"/>
<path d="M6877 1273 c-4 -3 -7 -16 -7 -29 0 -12 -7 -35 -15 -50 -13 -26 -13
-30 0 -40 8 -6 15 -21 15 -33 0 -34 26 -88 48 -100 12 -6 34 -11 51 -11 26 0
31 4 31 23 0 17 -8 25 -32 32 -29 9 -33 15 -36 48 -3 36 -3 37 32 37 41 0 51
12 36 40 -7 13 -21 20 -40 20 -28 0 -30 3 -30 35 0 30 -3 35 -23 35 -13 0 -27
-3 -30 -7z"/>
<path d="M8730 1245 c0 -35 -1 -35 -43 -35 -63 0 -97 -35 -97 -99 0 -39 5 -53
26 -75 29 -28 79 -35 117 -15 16 9 22 9 25 0 2 -6 10 -11 18 -11 11 0 14 25
14 135 l0 135 -30 0 c-28 0 -30 -3 -30 -35z"/>
<path d="M9470 1246 c0 -21 -6 -36 -15 -40 -8 -3 -15 -15 -15 -26 0 -11 7 -23
15 -26 10 -4 15 -20 15 -48 1 -61 36 -96 99 -96 26 0 31 4 31 25 0 20 -5 25
-24 25 -33 0 -56 25 -56 61 0 27 3 29 39 29 45 0 57 11 41 40 -8 14 -21 20
-45 20 -33 0 -35 2 -35 35 0 31 -3 35 -25 35 -22 0 -25 -4 -25 -34z"/>
<path d="M348 1223 c-1 -27 -2 -85 0 -130 l4 -83 79 0 c71 0 83 3 104 25 27
26 33 73 13 93 -9 9 -9 15 0 24 20 20 14 67 -13 93 -21 22 -33 25 -104 25
l-79 0 -4 -47z"/>
<path d="M2540 1140 l0 -130 90 0 90 0 0 30 0 30 -60 0 c-53 0 -60 2 -60 20 0
17 7 20 40 20 38 0 40 2 40 30 0 28 -2 30 -40 30 -33 0 -40 3 -40 20 0 16 8
19 58 22 54 3 57 4 60 31 l3 27 -90 0 -91 0 0 -130z"/>
<path d="M5258 1218 c-2 -29 -2 -88 0 -131 4 -78 4 -78 30 -75 l27 3 0 125 0
125 -27 3 c-26 3 -27 1 -30 -50z"/>
<path d="M5910 1140 l0 -130 55 0 c31 0 69 7 86 15 61 32 86 113 54 176 -24
46 -70 69 -137 69 l-58 0 0 -130z"/>
<path d="M7760 1140 l0 -130 30 0 c25 0 30 4 30 25 0 22 4 25 35 25 63 0 98
28 119 93 8 25 -17 81 -45 101 -17 11 -45 16 -96 16 l-73 0 0 -130z"/>
<path d="M8381 1212 c-65 -10 -102 -73 -81 -136 14 -43 48 -66 97 -66 62 1 93
38 93 110 0 61 -48 101 -109 92z"/>
<path d="M669 1193 c-1 -10 0 -45 1 -78 3 -86 23 -106 106 -103 l63 3 3 80 c4
103 1 115 -28 115 -26 0 -28 -7 -25 -75 3 -51 -20 -85 -46 -69 -13 8 -18 25
-19 62 -1 28 -4 58 -7 66 -9 22 -47 21 -48 -1z"/>
<path d="M1811 1201 c-7 -5 -22 -6 -32 -4 -18 5 -19 -1 -19 -91 0 -95 0 -96
25 -96 23 0 24 4 27 61 3 65 19 88 52 76 12 -5 16 -20 16 -72 l0 -65 31 0 32
0 -5 77 c-5 68 -8 79 -32 100 -28 23 -70 30 -95 14z"/>
<path d="M2071 1184 c-27 -22 -31 -32 -31 -74 0 -62 32 -97 93 -103 l42 -3
-32 -8 c-26 -7 -33 -14 -33 -32 0 -20 5 -24 30 -24 41 0 76 25 89 62 12 34 15
191 4 201 -3 4 -12 2 -19 -4 -9 -7 -19 -7 -33 0 -34 19 -78 13 -110 -15z"/>
<path d="M2810 1201 c0 -4 14 -25 30 -46 17 -21 30 -41 30 -45 0 -4 -13 -26
-30 -48 -16 -23 -30 -44 -30 -47 0 -3 15 -5 33 -5 24 0 36 7 48 27 l17 26 17
-26 c13 -21 25 -27 52 -27 l35 0 -37 51 c-40 56 -40 50 13 107 21 24 14 42
-17 42 -18 0 -34 -8 -44 -22 l-15 -23 -24 23 c-23 21 -78 31 -78 13z"/>
<path d="M3119 1187 c-48 -40 -44 -128 6 -161 35 -23 98 -21 120 4 18 19 18
22 2 38 -15 14 -21 15 -38 4 -25 -16 -56 -7 -64 19 -16 49 30 86 66 53 18 -16
20 -16 40 2 l21 19 -27 22 c-35 30 -91 31 -126 0z"/>
<path d="M3387 1190 c-47 -37 -40 -141 11 -169 35 -18 97 -13 117 9 18 19 18
22 2 38 -15 14 -20 15 -38 4 -36 -23 -30 -8 18 47 25 28 44 53 42 55 -55 42
-111 48 -152 16z"/>
<path d="M3993 1186 c-24 -21 -28 -32 -28 -76 0 -44 4 -55 28 -76 35 -30 95
-32 128 -5 23 19 23 20 6 38 -14 15 -21 16 -37 5 -42 -26 -31 -3 28 63 l32 34
-27 20 c-36 29 -94 28 -130 -3z"/>
<path d="M4291 1201 c-7 -5 -22 -6 -32 -4 -13 4 -19 0 -19 -11 0 -10 -4 -15
-9 -11 -5 3 -12 1 -16 -5 -3 -5 1 -10 9 -10 13 0 16 -14 16 -75 l0 -75 30 0
c29 0 29 0 32 68 3 64 4 67 28 67 24 0 25 -3 28 -67 l3 -68 31 0 30 0 -4 76
c-3 69 -6 79 -31 100 -28 24 -71 31 -96 15z"/>
<path d="M4549 1181 c-63 -64 -20 -171 69 -171 25 0 49 7 63 19 23 19 23 21 7
37 -15 15 -21 15 -49 4 -29 -13 -33 -12 -50 9 -19 23 -16 48 9 69 21 16 27 15
47 -4 15 -16 18 -15 38 5 l22 22 -24 20 c-37 30 -96 26 -132 -10z"/>
<path d="M4837 1203 c-41 -11 -60 -99 -32 -152 22 -44 104 -56 146 -22 23 19
23 21 7 37 -14 15 -21 16 -43 6 -31 -14 -29 -8 24 57 l35 43 -23 19 c-22 18
-71 23 -114 12z"/>
<path d="M5426 1187 c-12 -12 -15 -22 -8 -26 6 -4 12 -38 14 -76 3 -68 4 -70
30 -73 27 -3 27 -3 30 65 3 63 5 68 27 71 32 5 41 -12 41 -80 0 -55 1 -58 25
-58 26 0 26 0 23 82 -3 81 -3 82 -37 102 -28 16 -40 18 -72 9 -21 -5 -42 -7
-46 -3 -4 4 -16 -2 -27 -13z"/>
<path d="M6418 1188 c-34 -30 -43 -76 -24 -121 16 -41 41 -57 86 -57 18 0 29
-4 25 -10 -3 -5 -15 -10 -26 -10 -14 0 -19 -7 -19 -25 0 -21 5 -25 30 -25 19
0 41 10 59 28 29 26 30 31 32 117 1 118 2 113 -23 114 -13 0 -43 3 -68 6 -37
5 -50 2 -72 -17z"/>
<path d="M7128 1188 c-14 -13 -29 -37 -33 -54 -8 -39 15 -98 43 -113 25 -13
82 -14 102 -1 9 5 19 5 27 -2 8 -6 15 -9 17 -7 4 4 9 149 7 175 -1 7 -11 12
-23 13 -13 0 -43 3 -68 6 -37 5 -50 2 -72 -17z"/>
<path d="M8077 1203 c-4 -3 -7 -48 -7 -100 l0 -93 30 0 c30 0 30 0 30 58 0 65
11 82 52 82 23 0 28 4 28 25 0 32 -22 41 -68 27 -23 -7 -40 -8 -47 -2 -7 6
-15 7 -18 3z"/>
<path d="M8898 1193 c-3 -10 -2 -47 2 -82 8 -84 28 -102 110 -99 l59 3 3 80
c2 44 1 88 -1 98 -4 21 -51 24 -51 3 0 -8 -6 -17 -12 -20 -10 -5 -10 -7 0 -12
15 -7 16 -45 0 -79 -23 -50 -61 -20 -58 47 4 71 2 78 -24 78 -14 0 -25 -7 -28
-17z"/>
<path d="M9209 1181 c-64 -65 -23 -171 67 -171 27 0 50 7 65 19 23 19 23 21 7
37 -15 15 -21 15 -48 4 -28 -12 -33 -11 -53 9 -20 20 -21 23 -7 49 19 33 42
39 65 16 15 -16 18 -16 38 5 l22 22 -25 19 c-39 30 -95 26 -131 -9z"/>
<path d="M9735 1201 c-32 -14 -48 -38 -41 -65 10 -39 34 -56 77 -56 24 0 38
-4 34 -10 -3 -5 -31 -10 -61 -10 -51 0 -54 -1 -54 -25 0 -24 2 -25 68 -25 80
0 112 17 112 59 0 37 -28 61 -73 61 -20 0 -39 5 -42 10 -4 6 15 10 50 10 56 0
56 0 53 28 -3 25 -6 27 -53 29 -27 1 -59 -2 -70 -6z"/>
</g>
</svg>
